<svg width="248" height="152" viewBox="0 0 248 152" fill="none" xmlns="http://www.w3.org/2000/svg">
<g clip-path="url(#clip0_2311_79)">
<path d="M153.614 117.108L152.366 118.691C154.823 120.61 157.807 122.059 161.182 122.832C166.816 124.123 172.695 123.333 177.586 120.736C178.74 128.336 184.962 134.765 193.58 136.741C195.376 137.152 197.177 137.348 198.952 137.348C208.44 137.348 217.126 131.723 219.745 123.241C220.179 123.368 220.616 123.481 221.056 123.581C232.57 126.22 244.348 120.027 247.312 109.776C248.748 104.81 247.925 99.6446 244.996 95.2295C242.067 90.8144 237.382 87.6787 231.806 86.4006C227.292 85.3665 222.618 85.6529 218.365 87.188C217.563 84.3414 216.038 81.6952 213.871 79.424C210.981 76.395 207.162 74.2678 202.824 73.2748C197.288 72.0056 191.53 72.7186 186.595 75.28L175.752 89.0327L174.498 90.6217L154.872 115.513L153.616 117.107L153.614 117.108ZM198.424 103.765C199.464 104.787 199.996 106.109 199.921 107.486C199.846 108.863 199.173 110.132 198.025 111.059C196.949 111.929 195.578 112.399 194.136 112.399C194.04 112.399 193.944 112.397 193.847 112.393C192.3 112.326 190.875 111.726 189.833 110.705C188.791 109.684 188.26 108.362 188.335 106.985C188.41 105.608 189.084 104.338 190.231 103.411C191.378 102.485 192.861 102.009 194.41 102.078C195.956 102.144 197.382 102.744 198.424 103.765Z" fill="#FF7A00"/>
<path d="M93.2332 58.8233L96.2242 58.3544L99.5962 57.8252L158.999 48.5069L161.14 48.1716L163.281 47.8363C162.073 43.7347 159.483 40.021 155.787 37.2167C157.762 35.787 159.479 34.0759 160.837 32.1748C162.848 29.3603 164.043 26.2387 164.389 22.8988C165.584 11.3865 156.035 1.15483 143.104 0.0924859C136.838 -0.422629 130.726 1.2653 125.888 4.84413C121.05 8.42296 118.066 13.4662 117.488 19.0425C117.34 20.4543 117.356 21.8622 117.531 23.2572C115.146 22.2874 112.589 21.6772 109.96 21.4601C103.697 20.945 97.582 22.6329 92.7441 26.2118C87.9062 29.7906 84.9223 34.8338 84.3437 40.4102C83.7651 45.9865 85.6611 51.4306 89.6809 55.7377C90.7543 56.8874 91.9462 57.9189 93.2346 58.8246L93.2332 58.8233Z" fill="#FF7A00"/>
<path d="M108.562 104.108L100.116 119.196L114.117 109.087L108.562 104.108Z" fill="white"/>
<path d="M106.819 99.2424L179.111 57.7956L158.563 66.6091L141.059 74.1174L99.3248 92.0193L96.8965 116.305L105.891 100.237C105.943 100.144 106.004 100.058 106.07 99.9759C106.242 99.6805 106.496 99.4261 106.818 99.2411L106.819 99.2424Z" fill="white"/>
<path d="M133.365 73.1412L136.395 71.8412L140.072 70.2638L155.801 63.5172L159.473 61.9423L162.505 60.641L182.749 51.9573L184.771 51.0915L186.831 50.2064L194.748 46.8113L185.139 48.3181L182.886 48.6713L180.679 49.0182L163.985 51.6374L161.841 51.9727L159.695 52.3105L122.149 58.2003L120.004 58.5369L118.626 58.7527L103.914 61.0611L99.0678 61.8215L71.9868 66.0696L97.7058 88.4367L133.365 73.1412Z" fill="white"/>
<path d="M190.106 56.0768L111.411 101.194L140.393 127.168L149.355 115.802L150.664 114.142L152.003 112.444L170.281 89.2626L171.614 87.5708L172.928 85.9047L196.319 56.24L198.337 53.6785L201.348 49.8595L201.677 49.442L197.184 52.0176L192.821 54.5199L190.106 56.0768Z" fill="white"/>
<path d="M234.255 32.0707C231.584 31.4592 228.826 31.5491 226.263 32.3096C224.787 28.249 221.044 25.0248 216.293 23.9354C212.622 23.094 208.805 23.5758 205.542 25.292C202.538 26.872 200.335 29.3242 199.267 32.2531C198.585 31.9897 197.876 31.7726 197.146 31.6056C193.476 30.7642 189.658 31.246 186.396 32.9622C183.133 34.6784 180.816 37.4222 179.871 40.6889C179.424 42.2342 179.321 43.7886 179.517 45.2864L181.651 44.9511L183.793 44.6158L209.426 40.5951C209.438 40.5938 209.45 40.5925 209.46 40.5913C209.497 40.5861 209.535 40.5823 209.574 40.5784C209.601 40.5758 209.628 40.5733 209.656 40.572C209.689 40.5694 209.722 40.5694 209.755 40.5681C209.787 40.5681 209.819 40.5668 209.851 40.5681C209.878 40.5681 209.906 40.5707 209.933 40.572C209.969 40.5746 210.007 40.5758 210.043 40.5797C210.064 40.5823 210.086 40.5848 210.108 40.5887C210.148 40.5938 210.188 40.599 210.229 40.6054C210.246 40.608 210.262 40.6131 210.279 40.6157C210.323 40.6247 210.367 40.6336 210.409 40.6439C210.422 40.6478 210.435 40.6516 210.449 40.6555C210.496 40.6683 210.54 40.6812 210.585 40.6966C210.595 40.7004 210.604 40.7043 210.614 40.7082C211.042 40.8623 211.409 41.1385 211.654 41.4982C211.67 41.5226 211.687 41.5457 211.703 41.5701C211.713 41.5881 211.724 41.6061 211.734 41.6241C211.752 41.6575 211.771 41.6909 211.788 41.7255C211.797 41.7422 211.804 41.7602 211.812 41.7782C211.827 41.8142 211.843 41.8501 211.858 41.8874C211.859 41.8925 211.862 41.8964 211.863 41.9015C211.869 41.9169 211.872 41.9324 211.878 41.9491C211.889 41.9825 211.9 42.0171 211.91 42.0505C211.917 42.0749 211.921 42.1006 211.927 42.125C211.933 42.1546 211.94 42.1841 211.944 42.2137C211.949 42.2419 211.953 42.2702 211.956 42.2985C211.959 42.3254 211.962 42.3524 211.963 42.3794C211.964 42.4089 211.966 42.4385 211.966 42.468C211.966 42.4937 211.966 42.5207 211.966 42.5464C211.966 42.5759 211.963 42.6042 211.962 42.6337C211.959 42.6607 211.956 42.689 211.953 42.7159C211.95 42.7429 211.946 42.7699 211.94 42.7969C211.934 42.8264 211.928 42.856 211.921 42.8842C211.915 42.9086 211.91 42.933 211.902 42.9574C211.894 42.9883 211.884 43.0191 211.874 43.0499C211.866 43.0731 211.858 43.0949 211.849 43.1167C211.838 43.1476 211.825 43.1771 211.81 43.2079C211.8 43.2298 211.79 43.2516 211.78 43.2734C211.765 43.3017 211.749 43.33 211.735 43.3569C211.722 43.3801 211.709 43.4032 211.695 43.4263C211.679 43.4507 211.663 43.4751 211.646 43.4995C211.628 43.5252 211.611 43.5496 211.592 43.574C211.586 43.5817 211.581 43.5895 211.575 43.5972L203.886 53.3497L202.176 55.5193L200.66 57.4423C202.351 60.9402 205.785 63.6866 210.158 64.6886C211.337 64.9584 212.532 65.092 213.719 65.092C216.225 65.092 218.695 64.4959 220.909 63.3321C223.862 61.779 226.041 59.3833 227.127 56.52C227.148 56.5251 227.166 56.529 227.187 56.5341C234.763 58.2696 242.513 54.1949 244.462 47.4509C245.407 44.1829 244.866 40.7839 242.938 37.8795C241.011 34.9751 237.929 32.9121 234.258 32.0707H234.255Z" fill="#50D9D1"/>
<path d="M39.8636 125.038C43.0278 125.297 46.2079 124.787 49.0532 123.588C50.1108 125.718 51.6893 127.614 53.7021 129.156C56.3035 131.149 59.4519 132.402 62.8469 132.805L66.4973 130.97L74.7808 126.807C75.3262 126.533 75.9481 126.495 76.5007 126.651C77.0028 126.794 77.4501 127.097 77.7286 127.538C77.8368 127.71 77.9132 127.89 77.958 128.072C80.6186 125.595 82.3948 122.334 82.7757 118.664C83.2864 113.736 81.1828 108.969 77.1832 105.681C80.5609 103.049 82.6747 99.3991 83.096 95.3399C83.5303 91.1573 82.1091 87.0749 79.0935 83.8442C76.0779 80.6135 71.8301 78.6211 67.1322 78.2345C62.4342 77.8478 57.8488 79.1144 54.2186 81.7979C50.5898 84.4826 48.352 88.2644 47.9177 92.447C47.8556 93.0418 47.834 93.634 47.8484 94.2249L50.0185 93.386L52.265 92.5177L67.174 86.7576C68.2706 86.3337 69.5447 86.782 70.0208 87.7583C70.4969 88.7346 69.9934 89.8689 68.8968 90.2928L52.5348 96.6142L50.5235 97.3913L49.7212 97.7009L47.2208 98.6669L28.7738 105.794L26.269 106.761L23.9301 107.664C23.9186 107.753 23.9085 107.841 23.8984 107.93C23.4641 112.113 24.8867 116.195 27.9009 119.426C30.9164 122.656 35.1642 124.649 39.8622 125.035L39.8636 125.038ZM41.9457 110.038C42.0207 108.661 42.6945 107.392 43.8416 106.464C44.9887 105.537 46.4719 105.063 48.0201 105.131C49.5668 105.198 50.9924 105.798 52.0341 106.819C53.0759 107.84 53.6068 109.162 53.5318 110.539C53.4568 111.916 52.783 113.185 51.6359 114.113C50.5595 114.982 49.1888 115.452 47.746 115.452C47.6507 115.452 47.5541 115.45 47.4574 115.446C45.9106 115.379 44.4851 114.779 43.4433 113.758C42.403 112.737 41.8706 111.415 41.9457 110.038Z" fill="#50D9D1"/>
<path d="M33.9328 99.6021L38.6582 97.7767L43.9015 95.7509L47.1595 94.4921C45.8537 94.0951 44.496 93.8343 43.1109 93.72C35.4204 93.088 28.411 96.9649 25.3911 102.902L28.6505 101.643L33.9328 99.6021V99.6021Z" fill="#50D9D1"/>
<path d="M193.845 112.393C193.942 112.397 194.037 112.399 194.134 112.399C195.577 112.399 196.949 111.929 198.024 111.059C199.171 110.133 199.845 108.864 199.92 107.486C199.995 106.107 199.464 104.787 198.422 103.766C197.38 102.744 195.956 102.144 194.408 102.078C192.86 102.01 191.377 102.484 190.23 103.411C189.082 104.337 188.409 105.606 188.334 106.985C188.259 108.362 188.79 109.684 189.831 110.705C190.873 111.726 192.297 112.326 193.845 112.393Z" fill="black"/>
<path d="M60.2609 42.7957C60.3561 42.7995 60.4514 42.8021 60.5466 42.8021C63.6156 42.8021 66.1853 40.6479 66.3368 37.8899C66.4926 35.0458 64.0196 32.6205 60.8251 32.4818C57.6349 32.3444 54.905 34.5448 54.7506 37.3889C54.5948 40.2329 57.0679 42.6582 60.2624 42.797L60.2609 42.7957Z" fill="black"/>
<path d="M182.96 21.9405C183.057 21.9444 183.152 21.9469 183.249 21.9469C184.692 21.9469 186.064 21.4768 187.139 20.6071C188.286 19.6809 188.96 18.4118 189.035 17.0334C189.11 15.6551 188.579 14.3345 187.537 13.3133C186.495 12.2921 185.071 11.6922 183.523 11.6254C181.972 11.5586 180.491 12.0313 179.344 12.9588C178.197 13.8862 177.523 15.1541 177.448 16.5324C177.373 17.9095 177.904 19.2313 178.946 20.2526C179.986 21.2738 181.412 21.8737 182.96 21.9405Z" fill="black"/>
<path d="M44.8083 60.903C44.9049 60.9069 45.0002 60.9094 45.0968 60.9094C46.5397 60.9094 47.9119 60.4393 48.9868 59.5696C50.1339 58.6434 50.8077 57.3743 50.8827 55.9959C51.0385 53.1519 48.5655 50.7266 45.371 50.5879C43.8228 50.5198 42.3395 50.9938 41.1925 51.9212C40.0454 52.8474 39.3716 54.1166 39.2965 55.4949C39.2215 56.872 39.7525 58.1938 40.7942 59.2151C41.8345 60.2363 43.2601 60.8362 44.8083 60.903V60.903Z" fill="black"/>
<path d="M47.4567 115.446C47.5534 115.45 47.6486 115.453 47.7453 115.453C49.1881 115.453 50.5603 114.982 51.6352 114.113C52.7823 113.187 53.4561 111.917 53.5311 110.539C53.6062 109.162 53.0752 107.84 52.0334 106.819C50.9917 105.798 49.5676 105.198 48.0194 105.131C46.4712 105.063 44.988 105.537 43.8409 106.464C42.6938 107.392 42.02 108.66 41.945 110.038C41.8699 111.415 42.4009 112.737 43.4427 113.758C44.483 114.779 45.9085 115.379 47.4567 115.446Z" fill="black"/>
<path d="M211.953 42.2998C211.951 42.2715 211.946 42.2433 211.942 42.215C211.938 42.1855 211.93 42.1559 211.925 42.1264C211.919 42.102 211.914 42.0763 211.907 42.0519C211.899 42.0172 211.887 41.9838 211.875 41.9504C211.87 41.935 211.867 41.9196 211.861 41.9029C211.86 41.8977 211.857 41.8939 211.855 41.8887C211.841 41.8515 211.825 41.8155 211.809 41.7795C211.802 41.7615 211.795 41.7448 211.786 41.7269C211.769 41.6922 211.75 41.6588 211.731 41.6254C211.721 41.6074 211.712 41.5881 211.701 41.5714C211.686 41.547 211.669 41.5239 211.652 41.4995C211.616 41.4468 211.578 41.3967 211.536 41.3479C211.519 41.3261 211.499 41.3055 211.48 41.285C211.456 41.258 211.431 41.2323 211.405 41.2066C211.389 41.1912 211.376 41.1745 211.359 41.1591C211.35 41.1514 211.34 41.1437 211.332 41.136C211.31 41.1167 211.287 41.0974 211.264 41.0794C211.218 41.0422 211.171 41.0062 211.122 40.9728C211.095 40.9535 211.069 40.9356 211.04 40.9176C211.014 40.9009 210.987 40.8855 210.959 40.8701C210.926 40.8508 210.891 40.8328 210.858 40.8161C210.835 40.8045 210.812 40.793 210.789 40.7827C210.73 40.7557 210.671 40.73 210.61 40.7082C210.6 40.7043 210.591 40.7005 210.581 40.6966C210.537 40.6812 210.492 40.6684 210.446 40.6555C210.433 40.6517 210.42 40.6465 210.405 40.644C210.362 40.6324 210.319 40.6234 210.275 40.6157C210.258 40.6119 210.242 40.608 210.225 40.6054C210.184 40.5977 210.144 40.5939 210.104 40.5887C210.082 40.5862 210.06 40.5823 210.039 40.5797C210.003 40.5759 209.967 40.5746 209.929 40.572C209.902 40.5707 209.874 40.5682 209.847 40.5682C209.815 40.5682 209.783 40.5682 209.752 40.5682C209.718 40.5682 209.685 40.5682 209.652 40.572C209.625 40.5733 209.597 40.5759 209.57 40.5785C209.532 40.5823 209.495 40.5862 209.456 40.5913C209.444 40.5926 209.433 40.5939 209.423 40.5952L183.789 44.6159L181.648 44.9511L179.514 45.2864L163.276 47.8337L161.134 48.169L158.993 48.5043L99.5908 57.8226L96.2188 58.3518L93.2278 58.8207L67.0774 62.9237C66.2781 63.0495 65.6245 63.5621 65.3849 64.2519C65.1454 64.943 65.3604 65.6945 65.9404 66.1993L95.027 91.4965L91.5656 126.117C91.5627 126.152 91.5613 126.186 91.5598 126.221C91.5598 126.24 91.557 126.26 91.557 126.279C91.557 126.337 91.5584 126.396 91.5642 126.454V126.456C91.5699 126.515 91.5786 126.573 91.5916 126.631C91.5959 126.651 91.6017 126.672 91.6075 126.693C91.6161 126.729 91.6248 126.766 91.6363 126.802C91.645 126.827 91.6536 126.852 91.6623 126.878C91.6738 126.908 91.6854 126.939 91.6984 126.97C91.7099 126.996 91.7214 127.021 91.7344 127.047C91.7489 127.077 91.7633 127.106 91.7792 127.134C91.7921 127.159 91.8066 127.182 91.821 127.206C91.8398 127.237 91.8614 127.268 91.8816 127.299C91.896 127.319 91.909 127.339 91.9234 127.358C91.9537 127.398 91.9855 127.436 92.0201 127.475C92.0273 127.483 92.0331 127.492 92.0403 127.499C92.0403 127.499 92.0432 127.502 92.0446 127.503C92.0923 127.556 92.1428 127.605 92.1961 127.651C92.212 127.665 92.2279 127.678 92.2438 127.691C92.2827 127.723 92.3217 127.754 92.3621 127.783C92.3823 127.797 92.4025 127.811 92.4227 127.826C92.466 127.855 92.5107 127.882 92.5569 127.908C92.5727 127.917 92.5886 127.927 92.6045 127.936C92.6651 127.968 92.7257 127.998 92.7892 128.025C92.8122 128.035 92.8368 128.043 92.8599 128.052C92.9031 128.068 92.9464 128.084 92.9897 128.098C93.0171 128.107 93.0445 128.115 93.0734 128.122C93.0936 128.127 93.1124 128.135 93.1326 128.14C93.1643 128.148 93.196 128.154 93.2292 128.161C93.2408 128.163 93.2523 128.166 93.2653 128.169C93.3331 128.181 93.4024 128.192 93.4716 128.198C93.4846 128.199 93.4976 128.201 93.5106 128.202C93.5813 128.208 93.6534 128.212 93.7241 128.212C93.7804 128.212 93.8367 128.21 93.8915 128.206C93.9088 128.206 93.9261 128.202 93.9434 128.201C93.9795 128.197 94.017 128.193 94.0531 128.188C94.0762 128.184 94.1007 128.181 94.1238 128.176C94.1541 128.171 94.183 128.166 94.2133 128.16C94.2392 128.154 94.2652 128.149 94.2912 128.143C94.3186 128.136 94.3446 128.129 94.372 128.121C94.3979 128.113 94.4254 128.107 94.4513 128.098C94.4989 128.082 94.5451 128.066 94.5913 128.048C94.6144 128.039 94.636 128.029 94.6591 128.018C94.688 128.005 94.7168 127.994 94.7442 127.98C94.7659 127.969 94.7861 127.959 94.8063 127.948C94.838 127.931 94.8683 127.914 94.8986 127.898C94.9159 127.889 94.9318 127.878 94.9491 127.868C94.9924 127.842 95.0342 127.814 95.0746 127.784C95.0775 127.782 95.0819 127.781 95.0847 127.778L95.0891 127.774L95.0963 127.769L117.178 111.826L139.138 131.508C139.546 131.875 140.099 132.078 140.673 132.078C140.734 132.078 140.796 132.075 140.857 132.071C141.494 132.022 142.076 131.726 142.444 131.258L152.358 118.683L153.606 117.101L154.862 115.506L174.488 90.6153L175.742 89.0262L186.585 75.2736L200.649 57.4372L202.165 55.5142L203.875 53.3446L211.564 43.5921C211.57 43.5844 211.575 43.5767 211.581 43.5689C211.6 43.5445 211.617 43.5188 211.635 43.4944C211.65 43.47 211.668 43.4469 211.684 43.4212C211.698 43.3981 211.711 43.375 211.724 43.3519C211.74 43.3236 211.756 43.2966 211.769 43.2684C211.78 43.2465 211.789 43.2247 211.799 43.2028C211.812 43.1733 211.826 43.1425 211.838 43.1116C211.847 43.0898 211.854 43.0667 211.862 43.0448C211.873 43.014 211.883 42.9832 211.891 42.9523C211.899 42.9279 211.904 42.9035 211.91 42.8791C211.917 42.8496 211.923 42.82 211.929 42.7918C211.933 42.7648 211.938 42.7378 211.942 42.7108C211.945 42.6839 211.949 42.6556 211.951 42.6286C211.953 42.5991 211.955 42.5708 211.955 42.5413C211.955 42.5156 211.955 42.4886 211.955 42.4629C211.955 42.4334 211.953 42.4038 211.952 42.3743C211.951 42.3473 211.948 42.3203 211.945 42.2934L211.953 42.2998ZM196.319 56.24L172.93 85.9047L171.615 87.5721L170.282 89.2639L152.004 112.445L150.665 114.144L149.356 115.803L140.395 127.169L111.412 101.194L190.106 56.0769L192.821 54.52L197.186 52.0176L201.679 49.442L201.35 49.8595L198.339 53.6798L196.32 56.24H196.319ZM100.117 119.196L108.564 104.108L114.119 109.087L100.117 119.196V119.196ZM118.626 58.7526L120.006 58.5368L122.151 58.2003L159.697 52.3105L161.843 51.9739L163.987 51.6374L180.679 49.0181L182.887 48.6713L185.139 48.318L194.749 46.8099L186.832 50.2063L184.771 51.0901L182.751 51.9572L162.507 60.641L159.475 61.941L155.803 63.5158L140.075 70.2624L136.397 71.8399L133.368 73.1386L97.7093 88.434L71.9903 66.067L99.0714 61.8189L103.916 61.0584L118.628 58.7501L118.626 58.7526ZM106.82 99.2425C106.498 99.4262 106.244 99.6818 106.072 99.9772C106.007 100.059 105.945 100.144 105.893 100.238L96.8984 116.307L99.3268 92.0206L141.061 74.1187L158.565 66.6104L179.112 57.7969L106.821 99.2438L106.82 99.2425Z" fill="black"/>
<path d="M49.722 97.7036L50.5242 97.394L52.5356 96.6168L68.8976 90.2954C69.9942 89.8715 70.4977 88.7372 70.0216 87.7609C69.5454 86.7847 68.2714 86.3363 67.1748 86.7603L52.2658 92.5203L50.0192 93.3887L47.8492 94.2275L47.1609 94.4934L43.903 95.7523L38.6596 97.7781L33.9343 99.6034L28.6519 101.645L25.3925 102.904L1.30256 112.208C0.205986 112.632 -0.297571 113.766 0.178572 114.742C0.532072 115.469 1.32853 115.902 2.16539 115.902C2.45252 115.902 2.74542 115.851 3.02533 115.743L23.9295 107.667L26.2683 106.764L28.7731 105.796L47.2201 98.6696L49.7206 97.7036H49.722Z" fill="black"/>
<path d="M121.293 127.784C120.691 126.865 119.365 126.554 118.333 127.091L80.9459 146.494C79.9128 147.03 79.5636 148.21 80.1667 149.129C80.5693 149.743 81.2936 150.086 82.0381 150.086C82.4089 150.086 82.7841 150.001 83.126 149.824L120.513 130.42C121.546 129.885 121.896 128.704 121.293 127.786V127.784Z" fill="black"/>
<path d="M31.0023 151.021C31.4005 151.648 32.1335 152.001 32.8896 152.001C33.2503 152.001 33.6153 151.922 33.9515 151.752L76.9083 130.164C77.7567 129.737 78.1578 128.878 77.9587 128.074C77.914 127.891 77.8375 127.71 77.7293 127.539C77.4494 127.099 77.0035 126.794 76.5014 126.653C75.9488 126.496 75.3269 126.535 74.7815 126.808L66.4981 130.972L62.8476 132.806L31.8262 148.397C30.7859 148.92 30.418 150.095 31.0052 151.022L31.0023 151.021Z" fill="black"/>
</g>
<defs>
<clipPath id="clip0_2311_79">
<rect width="248" height="152" fill="white"/>
</clipPath>
</defs>
</svg>
